<svg width="32" height="32" viewBox="0 0 32 32" fill="none" xmlns="http://www.w3.org/2000/svg">
<rect width="32" height="32" rx="4" fill="black"/>
<path d="M7.69953 10L9.62972 13.4922H9.72164L11.6748 10H15.2365L11.7208 16L15.3743 22H11.7208L9.72164 18.4375H9.62972L7.6306 22H4L7.60762 16L4.11489 10H7.69953Z" fill="url(#paint0_linear_103_5)"/>
<path d="M21.1405 22H16.6137V10H21.0945C22.3047 10 23.3503 10.2402 24.2311 10.7207C25.1158 11.1973 25.7975 11.8848 26.2762 12.7832C26.7587 13.6777 27 14.75 27 16C27 17.25 26.7606 18.3242 26.2819 19.2227C25.8032 20.1172 25.1253 20.8047 24.2483 21.2852C23.3713 21.7617 22.3354 22 21.1405 22ZM19.8077 19.2344H21.0256C21.6077 19.2344 22.1037 19.1387 22.5135 18.9473C22.9271 18.7559 23.2411 18.4258 23.4556 17.957C23.6739 17.4883 23.783 16.8359 23.783 16C23.783 15.1641 23.672 14.5117 23.4498 14.043C23.2315 13.5742 22.9098 13.2441 22.4847 13.0527C22.0635 12.8613 21.5464 12.7656 20.9337 12.7656H19.8077V19.2344Z" fill="url(#paint1_linear_103_5)"/>
<defs>
<linearGradient id="paint0_linear_103_5" x1="3.51745" y1="6.16001" x2="40.0697" y2="25.3581" gradientUnits="userSpaceOnUse">
<stop stop-color="#FC8DC7"/>
<stop offset="1" stop-color="#FFD100"/>
</linearGradient>
<linearGradient id="paint1_linear_103_5" x1="3.51745" y1="6.16001" x2="40.0697" y2="25.3581" gradientUnits="userSpaceOnUse">
<stop stop-color="#FC8DC7"/>
<stop offset="1" stop-color="#FFD100"/>
</linearGradient>
</defs>
</svg>
