<svg width="55" height="19" viewBox="0 0 55 19" fill="none" xmlns="http://www.w3.org/2000/svg">
<path d="M6.46307 0.818181L9.44602 6.10938H9.58807L12.6065 0.818181H18.1108L12.6776 9.90909L18.3239 19H12.6776L9.58807 13.6023H9.44602L6.35653 19H0.745739L6.32102 9.90909L0.923296 0.818181H6.46307ZM27.235 19H20.2393V0.818181H27.164C29.0342 0.818181 30.65 1.18217 32.0113 1.91016C33.3785 2.63222 34.432 3.67389 35.1718 5.03516C35.9175 6.39051 36.2904 8.01515 36.2904 9.90909C36.2904 11.803 35.9205 13.4306 35.1807 14.7919C34.4408 16.1473 33.3933 17.1889 32.0379 17.9169C30.6826 18.639 29.0816 19 27.235 19ZM25.1753 14.8097H27.0574C27.9571 14.8097 28.7235 14.6647 29.3568 14.3746C29.996 14.0846 30.4813 13.5845 30.8128 12.8743C31.1501 12.1641 31.3188 11.1757 31.3188 9.90909C31.3188 8.64252 31.1472 7.65412 30.8039 6.94389C30.4665 6.23366 29.9694 5.73355 29.3124 5.44354C28.6614 5.15353 27.8624 5.00852 26.9154 5.00852H25.1753V14.8097ZM45.57 19H38.5742V0.818181H45.4989C47.3692 0.818181 48.985 1.18217 50.3462 1.91016C51.7134 2.63222 52.7669 3.67389 53.5067 5.03516C54.2525 6.39051 54.6254 8.01515 54.6254 9.90909C54.6254 11.803 54.2554 13.4306 53.5156 14.7919C52.7758 16.1473 51.7282 17.1889 50.3729 17.9169C49.0175 18.639 47.4165 19 45.57 19ZM43.5103 14.8097H45.3924C46.292 14.8097 47.0585 14.6647 47.6918 14.3746C48.331 14.0846 48.8163 13.5845 49.1477 12.8743C49.4851 12.1641 49.6538 11.1757 49.6538 9.90909C49.6538 8.64252 49.4821 7.65412 49.1388 6.94389C48.8015 6.23366 48.3043 5.73355 47.6474 5.44354C46.9963 5.15353 46.1973 5.00852 45.2504 5.00852H43.5103V14.8097Z" fill="url(#paint0_linear_1_321)"/>
<defs>
<linearGradient id="paint0_linear_1_321" x1="-6.84444" y1="-10.4167" x2="31.1011" y2="50.176" gradientUnits="userSpaceOnUse">
<stop stop-color="#FC8DC7"/>
<stop offset="1" stop-color="#529BF5"/>
</linearGradient>
</defs>
</svg>
